# xmcd
#
# Track frame offsets:
#	150
#	13567
#	26348
#	38627
#	52615
#	65556
#	76928
#	86854
#	99247
#	111251
#	123866
#	137934
#	149515
#	164652
#	178483
#	190425
#	206403
#	217592
#	230077
#	241381
#	252321
#	262939
#	276052
#	286903
#	299754
#
# Disc length: 4179 seconds
# Revision: 1
# Processed by: cddbd v1.5.2PL0 Copyright (c) Steve Scherf et al.
# Submitted via: dBpowerAMP V12.0
#
DISCID=71105119
DTITLE=Various Artist - Let Me Tell You About The Blues - Nashville
DYEAR=1946
DGENRE=Blues
TTITLE0=Cecil Gant - Nashville Jumps
TTITLE1=Wynonie Harris - My Baby's Barrel House
TTITLE2=Rudy Greene - Evil Man Blues
TTITLE3=Cecil Gant - Train Time Blues
TTITLE4=Iona Wade and S Williams - Keep Your Man At Home
TTITLE5=Wynonie Harris - Dig This Boogie
TTITLE6=Don Q Orchestra - Tom, Tom The Piper's Son
TTITLE7=Sherman Williams - I'm Lucky With My Brown Gal
TTITLE8=Walter Davis - Move Back To The Woods
TTITLE9=Lewis Campbell - Call On The Phone
TTITLE10=The Blue Jacks - Late Hours Blues
TTITLE11=Tom Douglas - Raid On Cedar Street
TTITLE12=Max 'Blues' Bailey - Delinquency Blues
TTITLE13=Mr Swing (Rufus Thomas) - Beer Bottle Boogie
TTITLE14=Bernard Hardison - Hey Little Girl
TTITLE15=Christine Kittrell - Don't Do It
TTITLE16=Mr Swing (Rufus Thomas) - Gonna Bring My Baby Back
TTITLE17=Sherman Johnson - Back Alley Boogie
TTITLE18=Tommy Brooks - Steam Pressing Woman
TTITLE19=Cecil Gant - Bullet Boogie
TTITLE20=Vivian Verson - Payday Lover
TTITLE21=Tucker Coles - Don't Get Excited
TTITLE22=Charlie Dowell Band - Wail Daddy
TTITLE23=Billie McAllister - Well Alright Baby
TTITLE24=Helen Foster - I Got A Big Fat Daddy
EXTD=
EXTT0=
EXTT1=
EXTT2=
EXTT3=
EXTT4=
EXTT5=
EXTT6=
EXTT7=
EXTT8=
EXTT9=
EXTT10=
EXTT11=
EXTT12=
EXTT13=
EXTT14=
EXTT15=
EXTT16=
EXTT17=
EXTT18=
EXTT19=
EXTT20=
EXTT21=
EXTT22=
EXTT23=
EXTT24=
PLAYORDER=
